<svg xmlns="http://www.w3.org/2000/svg" xmlns:xlink="http://www.w3.org/1999/xlink" width="500" zoomAndPan="magnify" viewBox="0 0 375 374.999991" height="500" preserveAspectRatio="xMidYMid meet" version="1.0"><defs><g/><clipPath id="fa20a91477"><path d="M 10.039062 23.25 L 335.875 23.25 L 335.875 349.085938 L 10.039062 349.085938 Z M 10.039062 23.25 " clip-rule="nonzero"/></clipPath><clipPath id="06342d3886"><path d="M 172.957031 23.25 C 82.980469 23.25 10.039062 96.191406 10.039062 186.167969 C 10.039062 276.144531 82.980469 349.085938 172.957031 349.085938 C 262.933594 349.085938 335.875 276.144531 335.875 186.167969 C 335.875 96.191406 262.933594 23.25 172.957031 23.25 Z M 172.957031 23.25 " clip-rule="nonzero"/></clipPath><clipPath id="322f4794ad"><path d="M 25.621094 228.300781 L 60.117188 228.300781 L 60.117188 324.421875 L 25.621094 324.421875 Z M 25.621094 228.300781 " clip-rule="nonzero"/></clipPath></defs><g clip-path="url(#fa20a91477)"><g clip-path="url(#06342d3886)"><path fill="#ffffff" d="M 10.039062 23.25 L 335.875 23.25 L 335.875 349.085938 L 10.039062 349.085938 Z M 10.039062 23.25 " fill-opacity="1" fill-rule="nonzero"/></g></g><g fill="#272727" fill-opacity="1"><g transform="translate(15.301244, 231.028442)"><g><path d="M 112.953125 0 L 112.953125 -42.125 C 112.953125 -47.332031 113.148438 -52.679688 113.546875 -58.171875 C 113.941406 -63.660156 114.363281 -68.273438 114.8125 -72.015625 C 115.269531 -75.753906 115.550781 -78.128906 115.65625 -79.140625 L 114.984375 -79.140625 L 93.40625 0 L 64.03125 0 L 42.296875 -78.984375 L 41.609375 -78.984375 C 41.722656 -77.960938 42.035156 -75.609375 42.546875 -71.921875 C 43.054688 -68.242188 43.535156 -63.660156 43.984375 -58.171875 C 44.441406 -52.679688 44.671875 -47.332031 44.671875 -42.125 L 44.671875 0 L 10.1875 0 L 10.1875 -116.859375 L 63.1875 -116.859375 L 80.84375 -49.421875 L 81.53125 -49.421875 L 99.015625 -116.859375 L 150.140625 -116.859375 L 150.140625 0 Z M 112.953125 0 "/></g></g></g><g fill="#272727" fill-opacity="1"><g transform="translate(175.627102, 231.028442)"><g><path d="M 96.125 0 L 47.046875 -56.734375 L 47.046875 0 L 12.5625 0 L 12.5625 -116.859375 L 45.34375 -116.859375 L 94.4375 -59.28125 L 94.4375 -116.859375 L 128.90625 -116.859375 L 128.90625 0 Z M 96.125 0 "/></g></g></g><path stroke-linecap="butt" transform="matrix(0.372268, 0, 0, 0.372268, 240.286395, 96.525747)" fill="none" stroke-linejoin="miter" d="M 230.83438 273.821734 L 334.180922 273.821734 L 334.180922 326.00392 L 123.311584 326.00392 L 123.311584 303.538193 L 224.192247 160.674636 L 130.95056 160.674636 L 130.95056 108.502943 L 331.70455 108.502943 L 331.70455 130.958177 Z M 230.83438 273.821734 " stroke="#ffffff" stroke-width="45.050236" stroke-opacity="1" stroke-miterlimit="4"/><g fill="#272727" fill-opacity="1"><g transform="translate(283.376467, 217.885259)"><g><path d="M 42.84375 -19.421875 L 81.328125 -19.421875 L 81.328125 0 L 2.828125 0 L 2.828125 -8.359375 L 40.359375 -61.546875 L 5.65625 -61.546875 L 5.65625 -80.96875 L 80.375 -80.96875 L 80.375 -72.609375 Z M 42.84375 -19.421875 "/></g></g></g><g clip-path="url(#322f4794ad)"><path fill="#272727" d="M 25.621094 228.300781 L 60.117188 228.300781 L 60.117188 324.375 L 25.621094 324.375 Z M 25.621094 228.300781 " fill-opacity="1" fill-rule="nonzero"/></g><path stroke-linecap="butt" transform="matrix(0.749847, -0.0151311, 0.0151311, 0.749847, 0.000117237, 109.41731)" fill="none" stroke-linejoin="miter" d="M 0.00113451 2.001308 L 115.540333 1.998959 " stroke="#272727" stroke-width="4" stroke-opacity="1" stroke-miterlimit="4"/><g fill="#272727" fill-opacity="1"><g transform="translate(62.587794, 258.340902)"><g><path d="M 17.484375 0 L 16.5625 -11.515625 L 16.453125 -11.515625 L 12.46875 -0.125 L 9.828125 -0.125 L 5.84375 -11.515625 L 5.71875 -11.515625 L 4.8125 0 L 0.375 0 L 2.125 -19.4375 L 6.828125 -19.4375 L 11.140625 -8.21875 L 15.453125 -19.4375 L 20.171875 -19.4375 L 21.90625 0 Z M 17.484375 0 "/></g></g></g><g fill="#272727" fill-opacity="1"><g transform="translate(86.401481, 258.340902)"><g><path d="M 11.28125 -19.4375 L 19.125 0 L 14.375 0 L 12.9375 -3.890625 L 5.53125 -3.890625 L 4.09375 0 L -0.65625 0 L 7.1875 -19.4375 Z M 11.421875 -7.78125 L 9.265625 -13.4375 L 9.21875 -13.4375 L 7.046875 -7.78125 Z M 11.421875 -7.78125 "/></g></g></g><g fill="#272727" fill-opacity="1"><g transform="translate(106.399498, 258.340902)"><g><path d="M 5.84375 -12.0625 L 5.84375 0 L 1.40625 0 L 1.40625 -19.4375 L 5.84375 -19.4375 L 13.578125 -7.375 L 13.625 -7.375 L 13.625 -19.4375 L 18.046875 -19.4375 L 18.046875 0 L 13.625 0 L 5.890625 -12.0625 Z M 5.84375 -12.0625 "/></g></g></g><g fill="#272727" fill-opacity="1"><g transform="translate(127.386762, 258.340902)"><g><path d="M 5.84375 -19.4375 L 5.84375 0 L 1.40625 0 L 1.40625 -19.4375 Z M 5.84375 -19.4375 "/></g></g></g><g fill="#272727" fill-opacity="1"><g transform="translate(136.173313, 258.340902)"><g><path d="M 8.578125 -19.796875 C 9.628906 -19.796875 10.65625 -19.640625 11.65625 -19.328125 C 12.664062 -19.023438 13.414062 -18.722656 13.90625 -18.421875 L 14.609375 -17.953125 L 12.8125 -14.421875 C 12.675781 -14.515625 12.484375 -14.632812 12.234375 -14.78125 C 11.984375 -14.9375 11.507812 -15.140625 10.8125 -15.390625 C 10.125 -15.640625 9.484375 -15.765625 8.890625 -15.765625 C 8.148438 -15.765625 7.578125 -15.609375 7.171875 -15.296875 C 6.773438 -14.984375 6.578125 -14.554688 6.578125 -14.015625 C 6.578125 -13.753906 6.671875 -13.507812 6.859375 -13.28125 C 7.046875 -13.050781 7.363281 -12.804688 7.8125 -12.546875 C 8.269531 -12.285156 8.671875 -12.078125 9.015625 -11.921875 C 9.367188 -11.765625 9.90625 -11.53125 10.625 -11.21875 C 11.882812 -10.6875 12.957031 -9.957031 13.84375 -9.03125 C 14.726562 -8.113281 15.171875 -7.078125 15.171875 -5.921875 C 15.171875 -4.796875 14.96875 -3.816406 14.5625 -2.984375 C 14.164062 -2.160156 13.617188 -1.507812 12.921875 -1.03125 C 12.222656 -0.5625 11.445312 -0.210938 10.59375 0.015625 C 9.75 0.242188 8.832031 0.359375 7.84375 0.359375 C 7 0.359375 6.164062 0.269531 5.34375 0.09375 C 4.53125 -0.0820312 3.847656 -0.296875 3.296875 -0.546875 C 2.742188 -0.804688 2.25 -1.0625 1.8125 -1.3125 C 1.375 -1.570312 1.050781 -1.785156 0.84375 -1.953125 L 0.546875 -2.21875 L 2.75 -5.9375 C 2.945312 -5.78125 3.207031 -5.578125 3.53125 -5.328125 C 3.863281 -5.085938 4.445312 -4.765625 5.28125 -4.359375 C 6.125 -3.953125 6.867188 -3.75 7.515625 -3.75 C 9.390625 -3.75 10.328125 -4.382812 10.328125 -5.65625 C 10.328125 -5.925781 10.257812 -6.171875 10.125 -6.390625 C 9.988281 -6.617188 9.75 -6.847656 9.40625 -7.078125 C 9.070312 -7.304688 8.773438 -7.488281 8.515625 -7.625 C 8.253906 -7.757812 7.828125 -7.960938 7.234375 -8.234375 C 6.648438 -8.503906 6.21875 -8.710938 5.9375 -8.859375 C 4.757812 -9.441406 3.847656 -10.164062 3.203125 -11.03125 C 2.554688 -11.90625 2.234375 -12.847656 2.234375 -13.859375 C 2.234375 -15.597656 2.878906 -17.019531 4.171875 -18.125 C 5.460938 -19.238281 6.929688 -19.796875 8.578125 -19.796875 Z M 8.578125 -19.796875 "/></g></g></g><g fill="#272727" fill-opacity="1"><g transform="translate(153.533337, 258.340902)"><g><path d="M 5.84375 -7.796875 L 5.84375 0 L 1.40625 0 L 1.40625 -19.4375 L 5.84375 -19.4375 L 5.84375 -11.6875 L 12.109375 -11.6875 L 12.109375 -19.4375 L 16.546875 -19.4375 L 16.546875 0 L 12.109375 0 L 12.109375 -7.796875 Z M 5.84375 -7.796875 "/></g></g></g><g fill="#272727" fill-opacity="1"><g transform="translate(173.013174, 258.340902)"><g/></g></g><g fill="#272727" fill-opacity="1"><g transform="translate(180.975361, 258.340902)"><g><path d="M 19.109375 0 L 13 0 L 5.84375 -8.25 L 5.84375 0 L 1.40625 0 L 1.40625 -19.4375 L 5.84375 -19.4375 L 5.84375 -11.5 L 12.515625 -19.4375 L 17.890625 -19.4375 L 10.0625 -10.21875 Z M 19.109375 0 "/></g></g></g><g fill="#272727" fill-opacity="1"><g transform="translate(201.044037, 258.340902)"><g><path d="M 5.84375 -7.796875 L 5.84375 0 L 1.40625 0 L 1.40625 -19.4375 L 5.84375 -19.4375 L 5.84375 -11.6875 L 12.109375 -11.6875 L 12.109375 -19.4375 L 16.546875 -19.4375 L 16.546875 0 L 12.109375 0 L 12.109375 -7.796875 Z M 5.84375 -7.796875 "/></g></g></g><g fill="#272727" fill-opacity="1"><g transform="translate(220.523881, 258.340902)"><g><path d="M 11.28125 -19.4375 L 19.125 0 L 14.375 0 L 12.9375 -3.890625 L 5.53125 -3.890625 L 4.09375 0 L -0.65625 0 L 7.1875 -19.4375 Z M 11.421875 -7.78125 L 9.265625 -13.4375 L 9.21875 -13.4375 L 7.046875 -7.78125 Z M 11.421875 -7.78125 "/></g></g></g><g fill="#272727" fill-opacity="1"><g transform="translate(240.521905, 258.340902)"><g><path d="M 1.40625 -19.4375 L 7.046875 -19.4375 C 9.742188 -19.4375 12.050781 -18.515625 13.96875 -16.671875 C 15.882812 -14.828125 16.84375 -12.515625 16.84375 -9.734375 C 16.84375 -6.929688 15.890625 -4.609375 13.984375 -2.765625 C 12.078125 -0.921875 9.765625 0 7.046875 0 L 1.40625 0 Z M 5.84375 -3.953125 L 6.53125 -3.953125 C 8.144531 -3.953125 9.46875 -4.5 10.5 -5.59375 C 11.53125 -6.6875 12.050781 -8.054688 12.0625 -9.703125 C 12.0625 -11.359375 11.546875 -12.734375 10.515625 -13.828125 C 9.492188 -14.929688 8.164062 -15.484375 6.53125 -15.484375 L 5.84375 -15.484375 Z M 5.84375 -3.953125 "/></g></g></g><g fill="#272727" fill-opacity="1"><g transform="translate(259.436474, 258.340902)"><g><path d="M 19.109375 0 L 13 0 L 5.84375 -8.25 L 5.84375 0 L 1.40625 0 L 1.40625 -19.4375 L 5.84375 -19.4375 L 5.84375 -11.5 L 12.515625 -19.4375 L 17.890625 -19.4375 L 10.0625 -10.21875 Z M 19.109375 0 "/></g></g></g><g fill="#272727" fill-opacity="1"><g transform="translate(279.50515, 258.340902)"><g><path d="M 11.28125 -19.4375 L 19.125 0 L 14.375 0 L 12.9375 -3.890625 L 5.53125 -3.890625 L 4.09375 0 L -0.65625 0 L 7.1875 -19.4375 Z M 11.421875 -7.78125 L 9.265625 -13.4375 L 9.21875 -13.4375 L 7.046875 -7.78125 Z M 11.421875 -7.78125 "/></g></g></g></svg>